0 0
draw_vof(): no field named 'u '
WARNING: convergence for pf not reached after 100 iterations
  res: 0.00366289 sum: -7.20896 nrelax: 100
1 1.13636
draw_vof(): no field named 'u '
2 1.14029
draw_vof(): no field named 'u '
3 1.14481
draw_vof(): no field named 'u '
4 1.15011
draw_vof(): no field named 'u '
5 1.1561
draw_vof(): no field named 'u '
6 1.16273
draw_vof(): no field named 'u '
7 1.16995
draw_vof(): no field named 'u '
8 1.17769
draw_vof(): no field named 'u '
9 1.18593
draw_vof(): no field named 'u '
10 1.19462
draw_vof(): no field named 'u '
11 1.2037
draw_vof(): no field named 'u '
12 1.21315
draw_vof(): no field named 'u '
13 1.22292
draw_vof(): no field named 'u '
14 1.23298
draw_vof(): no field named 'u '
15 1.24331
draw_vof(): no field named 'u '
16 1.25389
draw_vof(): no field named 'u '
17 1.26468
draw_vof(): no field named 'u '
18 1.27567
draw_vof(): no field named 'u '
ffmpeg version 4.2.4-1ubuntu0.1 Copyright (c) 2000-2020 the FFmpeg developers
  built with gcc 9 (Ubuntu 9.3.0-10ubuntu2)
  configuration: --prefix=/usr --extra-version=1ubuntu0.1 --toolchain=hardened --libdir=/usr/lib/x86_64-linux-gnu --incdir=/usr/include/x86_64-linux-gnu --arch=amd64 --enable-gpl --disable-stripping --enable-avresample --disable-filter=resample --enable-avisynth --enable-gnutls --enable-ladspa --enable-libaom --enable-libass --enable-libbluray --enable-libbs2b --enable-libcaca --enable-libcdio --enable-libcodec2 --enable-libflite --enable-libfontconfig --enable-libfreetype --enable-libfribidi --enable-libgme --enable-libgsm --enable-libjack --enable-libmp3lame --enable-libmysofa --enable-libopenjpeg --enable-libopenmpt --enable-libopus --enable-libpulse --enable-librsvg --enable-librubberband --enable-libshine --enable-libsnappy --enable-libsoxr --enable-libspeex --enable-libssh --enable-libtheora --enable-libtwolame --enable-libvidstab --enable-libvorbis --enable-libvpx --enable-libwavpack --enable-libwebp --enable-libx265 --enable-libxml2 --enable-libxvid --enable-libzmq --enable-libzvbi --enable-lv2 --enable-omx --enable-openal --enable-opencl --enable-opengl --enable-sdl2 --enable-libdc1394 --enable-libdrm --enable-libiec61883 --enable-nvenc --enable-chromaprint --enable-frei0r --enable-libx264 --enable-shared
  WARNING: library configuration mismatch
  avcodec     configuration: --prefix=/usr --extra-version=1ubuntu0.1 --toolchain=hardened --libdir=/usr/lib/x86_64-linux-gnu --incdir=/usr/include/x86_64-linux-gnu --arch=amd64 --enable-gpl --disable-stripping --enable-avresample --disable-filter=resample --enable-avisynth --enable-gnutls --enable-ladspa --enable-libaom --enable-libass --enable-libbluray --enable-libbs2b --enable-libcaca --enable-libcdio --enable-libcodec2 --enable-libflite --enable-libfontconfig --enable-libfreetype --enable-libfribidi --enable-libgme --enable-libgsm --enable-libjack --enable-libmp3lame --enable-libmysofa --enable-libopenjpeg --enable-libopenmpt --enable-libopus --enable-libpulse --enable-librsvg --enable-librubberband --enable-libshine --enable-libsnappy --enable-libsoxr --enable-libspeex --enable-libssh --enable-libtheora --enable-libtwolame --enable-libvidstab --enable-libvorbis --enable-libvpx --enable-libwavpack --enable-libwebp --enable-libx265 --enable-libxml2 --enable-libxvid --enable-libzmq --enable-libzvbi --enable-lv2 --enable-omx --enable-openal --enable-opencl --enable-opengl --enable-sdl2 --enable-libdc1394 --enable-libdrm --enable-libiec61883 --enable-nvenc --enable-chromaprint --enable-frei0r --enable-libx264 --enable-shared --enable-version3 --disable-doc --disable-programs --enable-libaribb24 --enable-liblensfun --enable-libopencore_amrnb --enable-libopencore_amrwb --enable-libtesseract --enable-libvo_amrwbenc
  libavutil      56. 31.100 / 56. 31.100
  libavcodec     58. 54.100 / 58. 54.100
  libavformat    58. 29.100 / 58. 29.100
  libavdevice    58.  8.100 / 58.  8.100
  libavfilter     7. 57.100 /  7. 57.100
  libavresample   4.  0.  0 /  4.  0.  0
  libswscale      5.  5.100 /  5.  5.100
  libswresample   3.  5.100 /  3.  5.100
  libpostproc    55.  5.100 / 55.  5.100
Input #0, image2pipe, from 'pipe:':
  Duration: N/A, bitrate: N/A
    Stream #0:0: Video: ppm, rgb24, 600x600, 25 fps, 25 tbr, 25 tbn, 25 tbc
Stream mapping:
  Stream #0:0 -> #0:0 (ppm (native) -> h264 (libx264))
[libx264 @ 0x5555555dd680] using cpu capabilities: MMX2 SSE2Fast SSSE3 SSE4.2 AVX
[libx264 @ 0x5555555dd680] profile High, level 3.0
Output #0, mpegts, to 'u.mp4':
  Metadata:
    encoder         : Lavf58.29.100
    Stream #0:0: Video: h264 (libx264), yuv420p, 600x600, q=-1--1, 25 fps, 90k tbn, 25 tbc
    Metadata:
      encoder         : Lavc58.54.100 libx264
    Side data:
      cpb: bitrate max/min/avg: 0/0/0 buffer size: 0 vbv_delay: -1
frame=    7 fps=0.2 q=28.0 size=     512kB time=00:00:00.24 bitrate=17475.5kbits/s speed=0.00564x    frame=    8 fps=0.1 q=29.0 size=     512kB time=00:00:00.28 bitrate=14979.1kbits/s speed=0.00358x    frame=    9 fps=0.1 q=29.0 size=     768kB time=00:00:00.32 bitrate=19660.1kbits/s speed=0.00283x    frame=   10 fps=0.1 q=29.0 size=     768kB time=00:00:00.36 bitrate=17475.7kbits/s speed=0.00242x    frame=   11 fps=0.1 q=29.0 size=    1024kB time=00:00:00.40 bitrate=20970.9kbits/s speed=0.0021x    frame=   12 fps=0.1 q=29.0 size=    1024kB time=00:00:00.44 bitrate=19064.5kbits/s speed=0.00194x    frame=   13 fps=0.0 q=29.0 size=    1280kB time=00:00:00.48 bitrate=21844.8kbits/s speed=0.00184x    frame=   14 fps=0.0 q=28.0 size=    1280kB time=00:00:00.52 bitrate=20164.5kbits/s speed=0.00175x    frame=   15 fps=0.0 q=28.0 size=    1280kB time=00:00:00.56 bitrate=18724.2kbits/s speed=0.00164x    frame=   16 fps=0.0 q=28.0 size=    1536kB time=00:00:00.60 bitrate=20971.1kbits/s speed=0.00155x    frame=   17 fps=0.0 q=28.0 size=    1536kB time=00:00:00.64 bitrate=19660.5kbits/s speed=0.0015x    frame=   18 fps=0.0 q=28.0 size=    1792kB time=00:00:00.68 bitrate=21588.0kbits/s speed=0.00158x    Error while decoding stream #0:0: Invalid data found when processing input
frame=   18 fps=0.0 q=28.0 size=    1792kB time=00:00:00.68 bitrate=21588.0kbits/s speed=0.00145x    frame=   18 fps=0.0 q=28.0 Lsize=    1803kB time=00:00:00.68 bitrate=21719.2kbits/s speed=0.00136x    
video:1670kB audio:0kB subtitle:0kB other streams:0kB global headers:0kB muxing overhead: 7.960490%
[libx264 @ 0x5555555dd680] frame I:8     Avg QP:28.18  size: 88077
[libx264 @ 0x5555555dd680] frame P:10    Avg QP:33.86  size:100542
[libx264 @ 0x5555555dd680] mb I  I16..4: 16.2%  4.8% 79.0%
[libx264 @ 0x5555555dd680] mb P  I16..4:  1.2% 13.2% 32.6%  P16..4: 10.9% 20.8% 21.2%  0.0%  0.0%    skip: 0.0%
[libx264 @ 0x5555555dd680] 8x8 transform intra:13.4% inter:33.3%
[libx264 @ 0x5555555dd680] coded y,uvDC,uvAC intra: 88.2% 0.0% 0.0% inter: 95.7% 0.0% 0.0%
[libx264 @ 0x5555555dd680] i16 v,h,dc,p: 49% 23% 22%  5%
[libx264 @ 0x5555555dd680] i8 v,h,dc,ddl,ddr,vr,hd,vl,hu:  6% 17% 23%  3%  9%  6% 17%  3% 16%
[libx264 @ 0x5555555dd680] i4 v,h,dc,ddl,ddr,vr,hd,vl,hu:  9%  7% 15%  6% 16% 13% 12%  7% 14%
[libx264 @ 0x5555555dd680] i8c dc,h,v,p: 100%  0%  0%  0%
[libx264 @ 0x5555555dd680] Weighted P-Frames: Y:70.0% UV:0.0%
[libx264 @ 0x5555555dd680] ref P L0: 51.9%  9.0% 11.3%  9.6%  8.2%  6.0%  4.1%
[libx264 @ 0x5555555dd680] kb/s:19000.37
Exiting normally, received signal 2.
ffmpeg version 4.2.4-1ubuntu0.1 Copyright (c) 2000-2020 the FFmpeg developers
  built with gcc 9 (Ubuntu 9.3.0-10ubuntu2)
  configuration: --prefix=/usr --extra-version=1ubuntu0.1 --toolchain=hardened --libdir=/usr/lib/x86_64-linux-gnu --incdir=/usr/include/x86_64-linux-gnu --arch=amd64 --enable-gpl --disable-stripping --enable-avresample --disable-filter=resample --enable-avisynth --enable-gnutls --enable-ladspa --enable-libaom --enable-libass --enable-libbluray --enable-libbs2b --enable-libcaca --enable-libcdio --enable-libcodec2 --enable-libflite --enable-libfontconfig --enable-libfreetype --enable-libfribidi --enable-libgme --enable-libgsm --enable-libjack --enable-libmp3lame --enable-libmysofa --enable-libopenjpeg --enable-libopenmpt --enable-libopus --enable-libpulse --enable-librsvg --enable-librubberband --enable-libshine --enable-libsnappy --enable-libsoxr --enable-libspeex --enable-libssh --enable-libtheora --enable-libtwolame --enable-libvidstab --enable-libvorbis --enable-libvpx --enable-libwavpack --enable-libwebp --enable-libx265 --enable-libxml2 --enable-libxvid --enable-libzmq --enable-libzvbi --enable-lv2 --enable-omx --enable-openal --enable-opencl --enable-opengl --enable-sdl2 --enable-libdc1394 --enable-libdrm --enable-libiec61883 --enable-nvenc --enable-chromaprint --enable-frei0r --enable-libx264 --enable-shared
  WARNING: library configuration mismatch
  avcodec     configuration: --prefix=/usr --extra-version=1ubuntu0.1 --toolchain=hardened --libdir=/usr/lib/x86_64-linux-gnu --incdir=/usr/include/x86_64-linux-gnu --arch=amd64 --enable-gpl --disable-stripping --enable-avresample --disable-filter=resample --enable-avisynth --enable-gnutls --enable-ladspa --enable-libaom --enable-libass --enable-libbluray --enable-libbs2b --enable-libcaca --enable-libcdio --enable-libcodec2 --enable-libflite --enable-libfontconfig --enable-libfreetype --enable-libfribidi --enable-libgme --enable-libgsm --enable-libjack --enable-libmp3lame --enable-libmysofa --enable-libopenjpeg --enable-libopenmpt --enable-libopus --enable-libpulse --enable-librsvg --enable-librubberband --enable-libshine --enable-libsnappy --enable-libsoxr --enable-libspeex --enable-libssh --enable-libtheora --enable-libtwolame --enable-libvidstab --enable-libvorbis --enable-libvpx --enable-libwavpack --enable-libwebp --enable-libx265 --enable-libxml2 --enable-libxvid --enable-libzmq --enable-libzvbi --enable-lv2 --enable-omx --enable-openal --enable-opencl --enable-opengl --enable-sdl2 --enable-libdc1394 --enable-libdrm --enable-libiec61883 --enable-nvenc --enable-chromaprint --enable-frei0r --enable-libx264 --enable-shared --enable-version3 --disable-doc --disable-programs --enable-libaribb24 --enable-liblensfun --enable-libopencore_amrnb --enable-libopencore_amrwb --enable-libtesseract --enable-libvo_amrwbenc
  libavutil      56. 31.100 / 56. 31.100
  libavcodec     58. 54.100 / 58. 54.100
  libavformat    58. 29.100 / 58. 29.100
  libavdevice    58.  8.100 / 58.  8.100
  libavfilter     7. 57.100 /  7. 57.100
  libavresample   4.  0.  0 /  4.  0.  0
  libswscale      5.  5.100 /  5.  5.100
  libswresample   3.  5.100 /  3.  5.100
  libpostproc    55.  5.100 / 55.  5.100
Input #0, image2pipe, from 'pipe:':
  Duration: N/A, bitrate: N/A
    Stream #0:0: Video: ppm, rgb24, 600x600, 25 fps, 25 tbr, 25 tbn, 25 tbc
Stream mapping:
  Stream #0:0 -> #0:0 (ppm (native) -> h264 (libx264))
[libx264 @ 0x5555555dd680] using cpu capabilities: MMX2 SSE2Fast SSSE3 SSE4.2 AVX
[libx264 @ 0x5555555dd680] profile High, level 3.0
Output #0, mpegts, to 'csscalar.mp4':
  Metadata:
    encoder         : Lavf58.29.100
    Stream #0:0: Video: h264 (libx264), yuv420p, 600x600, q=-1--1, 25 fps, 90k tbn, 25 tbc
    Metadata:
      encoder         : Lavc58.54.100 libx264
    Side data:
      cpb: bitrate max/min/avg: 0/0/0 buffer size: 0 vbv_delay: -1
frame=    7 fps=0.2 q=13.0 size=       6kB time=00:00:00.24 bitrate= 200.5kbits/s speed=0.00564x    frame=    8 fps=0.1 q=13.0 size=       6kB time=00:00:00.28 bitrate= 182.6kbits/s speed=0.00358x    frame=    9 fps=0.1 q=13.0 size=       7kB time=00:00:00.32 bitrate= 169.2kbits/s speed=0.00283x    frame=   10 fps=0.1 q=13.0 size=       7kB time=00:00:00.36 bitrate= 158.8kbits/s speed=0.00243x    frame=   11 fps=0.1 q=13.0 size=       7kB time=00:00:00.40 bitrate= 150.4kbits/s speed=0.0021x    frame=   12 fps=0.1 q=13.0 size=       8kB time=00:00:00.44 bitrate= 143.6kbits/s speed=0.00194x    frame=   13 fps=0.0 q=13.0 size=       8kB time=00:00:00.48 bitrate= 144.1kbits/s speed=0.00184x    frame=   14 fps=0.0 q=13.0 size=       9kB time=00:00:00.52 bitrate= 138.8kbits/s speed=0.00175x    frame=   15 fps=0.0 q=13.0 size=       9kB time=00:00:00.56 bitrate= 134.3kbits/s speed=0.00164x    frame=   16 fps=0.0 q=13.0 size=      10kB time=00:00:00.60 bitrate= 130.3kbits/s speed=0.00155x    frame=   17 fps=0.0 q=13.0 size=      10kB time=00:00:00.64 bitrate= 126.9kbits/s speed=0.0015x    frame=   18 fps=0.0 q=13.0 size=      10kB time=00:00:00.68 bitrate= 123.9kbits/s speed=0.00158x    Error while decoding stream #0:0: Invalid data found when processing input
frame=   18 fps=0.0 q=13.0 size=      10kB time=00:00:00.68 bitrate= 123.9kbits/s speed=0.00145x    frame=   18 fps=0.0 q=13.0 Lsize=      10kB time=00:00:00.68 bitrate= 123.9kbits/s speed=0.00136x    
video:7kB audio:0kB subtitle:0kB other streams:0kB global headers:0kB muxing overhead: 56.480381%
[libx264 @ 0x5555555dd680] frame I:1     Avg QP: 0.71  size:  3058
[libx264 @ 0x5555555dd680] frame P:17    Avg QP: 0.25  size:   216
[libx264 @ 0x5555555dd680] mb I  I16..4: 97.8%  0.0%  2.2%
[libx264 @ 0x5555555dd680] mb P  I16..4:  0.0%  0.0%  0.0%  P16..4:  0.0%  0.0%  0.0%  0.0%  0.0%    skip:100.0%
[libx264 @ 0x5555555dd680] 8x8 transform intra:0.0% inter:12.5%
[libx264 @ 0x5555555dd680] coded y,uvDC,uvAC intra: 1.3% 0.0% 0.0% inter: 0.0% 0.0% 0.0%
[libx264 @ 0x5555555dd680] i16 v,h,dc,p: 73%  3% 24%  0%
[libx264 @ 0x5555555dd680] i4 v,h,dc,ddl,ddr,vr,hd,vl,hu: 27% 17% 44%  3%  2%  3%  2%  2%  1%
[libx264 @ 0x5555555dd680] i8c dc,h,v,p: 100%  0%  0%  0%
[libx264 @ 0x5555555dd680] Weighted P-Frames: Y:0.0% UV:0.0%
[libx264 @ 0x5555555dd680] ref P L0: 87.5%  0.0%  0.0%  0.0%  0.0% 12.5%
[libx264 @ 0x5555555dd680] kb/s:74.76
Exiting normally, received signal 2.
